<svg version="1.1" preserveAspectRatio="none" xmlns="http://www.w3.org/2000/svg" width="500" height="500" viewBox="0 0 500 500"><rect width="100%" height="100%" fill="#F7F7F7" fill-opacity="1"/><svg viewBox="109.7959 359.7608 397.5995 149.4" width="333" height="125.12641489740305" x="83.5px" y="187.4368px" xmlns="http://www.w3.org/2000/svg" xmlns:xlink="http://www.w3.org/1999/xlink" preserveAspectRatio="none"><defs></defs><style>.companyName {fill:#26374D;fill-opacity:1;}.icon1 {fill:#CCBFA3;fill-opacity:1;}.icon3-str {stroke:#868686;stroke-opacity:1;}.shapeStroke-str {stroke:#26374D;stroke-opacity:1;}.text {fill:#26374D;fill-opacity:1;}</style><g opacity="1" transform="rotate(0 109.7959 359.7608)">
<svg width="4" height="149.4" x="109.7959" y="359.7608" version="1.1" preserveAspectRatio="none" viewBox="0 0 4 149.4">
  <defs><rect x="0" y="0" width="4" height="149.4" rx="0%" ry="0%" id="id-EiCqXr4G1700727587008"></rect></defs><use class="icon1 shapeStroke-str" style="stroke-width:0;" xlink:href="#id-EiCqXr4G1700727587008"></use>
</svg>
</g><g opacity="1" transform="rotate(0 131.7959 464.7608)">
<svg width="133.0629" height="29.4" x="131.7959" y="464.7608" version="1.1" preserveAspectRatio="none" viewBox="0.12 -31 167.27999999999997 36.96">
  <g transform="matrix(1 0 0 1 0 0)" class="text"><path id="id-6izo4zJp8" d="M10.44-5.24Q10.44-1.80 9.12 0.70Q7.80 3.20 5.46 4.54Q3.12 5.88 0.12 5.96L0.12 5.96L0.12 2.20Q3.08 2.04 4.82 0.14Q6.56-1.76 6.56-5.36L6.56-5.36L6.56-28.92L10.44-28.92L10.44-5.24Z M18-8.44Q18-10.88 19.18-12.90Q20.36-14.92 22.46-16.08Q24.56-17.24 27.20-17.24L27.20-17.24Q29.84-17.24 31.90-16.08Q33.96-14.92 35.10-12.92Q36.24-10.92 36.24-8.44L36.24-8.44Q36.24-5.96 35.10-3.94Q33.96-1.92 31.88-0.76Q29.80 0.40 27.12 0.40L27.12 0.40Q24.52 0.40 22.44-0.70Q20.36-1.80 19.18-3.80Q18-5.80 18-8.44L18-8.44ZM21.76-8.40Q21.76-6.84 22.46-5.52Q23.16-4.20 24.38-3.44Q25.60-2.68 27.08-2.68L27.08-2.68Q29.40-2.68 30.92-4.32Q32.44-5.96 32.44-8.40L32.44-8.40Q32.44-10.84 30.92-12.50Q29.40-14.16 27.08-14.16L27.08-14.16Q25.56-14.16 24.36-13.38Q23.16-12.60 22.46-11.28Q21.76-9.96 21.76-8.40L21.76-8.40Z M50.60-2.80Q52.68-2.80 54.64-4.24L54.64-4.24L56.36-1.48Q55.04-0.60 53.50-0.10Q51.96 0.40 50.52 0.40L50.52 0.40Q47.76 0.40 45.70-0.74Q43.64-1.88 42.52-3.88Q41.40-5.88 41.40-8.40L41.40-8.40Q41.40-10.84 42.62-12.86Q43.84-14.88 45.96-16.06Q48.08-17.24 50.60-17.24L50.60-17.24Q53.84-17.24 56.02-15.34Q58.20-13.44 59-10.04L59-10.04L45.88-5.44Q46.60-4.20 47.82-3.50Q49.04-2.80 50.60-2.80L50.60-2.80ZM50.32-14.28Q48.04-14.28 46.56-12.68Q45.08-11.08 45.08-8.60L45.08-8.60Q45.08-8 45.12-7.68L45.12-7.68L54.76-11.24Q54.16-12.60 53.06-13.44Q51.96-14.28 50.32-14.28L50.32-14.28Z M75.84-17.24Q78.08-17.24 79.94-16.16Q81.80-15.08 82.88-13.12Q83.96-11.16 83.96-8.56L83.96-8.56Q83.96-5.84 82.80-3.80Q81.64-1.76 79.66-0.68Q77.68 0.40 75.36 0.40L75.36 0.40Q73.32 0.40 71.66-0.40Q70-1.20 68.96-2.56L68.96-2.56L68.96 0L65.24 0L65.24-31L68.96-31L68.96-14.36Q70-15.68 71.82-16.46Q73.64-17.24 75.84-17.24L75.84-17.24ZM74.56-2.80Q77-2.80 78.58-4.44Q80.16-6.08 80.16-8.56L80.16-8.56Q80.16-10.16 79.42-11.46Q78.68-12.76 77.40-13.52Q76.12-14.28 74.56-14.28L74.56-14.28Q72.52-14.28 70.98-13.18Q69.44-12.08 68.96-10.28L68.96-10.28L68.96-6.92Q69.44-5.12 70.96-3.96Q72.48-2.80 74.56-2.80L74.56-2.80Z M98.32-2.80Q100.40-2.80 102.36-4.24L102.36-4.24L104.08-1.48Q102.76-0.60 101.22-0.10Q99.68 0.40 98.24 0.40L98.24 0.40Q95.48 0.40 93.42-0.74Q91.36-1.88 90.24-3.88Q89.12-5.88 89.12-8.40L89.12-8.40Q89.12-10.84 90.34-12.86Q91.56-14.88 93.68-16.06Q95.80-17.24 98.32-17.24L98.32-17.24Q101.56-17.24 103.74-15.34Q105.92-13.44 106.72-10.04L106.72-10.04L93.60-5.44Q94.32-4.20 95.54-3.50Q96.76-2.80 98.32-2.80L98.32-2.80ZM98.04-14.28Q95.76-14.28 94.28-12.68Q92.80-11.08 92.80-8.60L92.80-8.60Q92.80-8 92.84-7.68L92.84-7.68L102.48-11.24Q101.88-12.60 100.78-13.44Q99.68-14.28 98.04-14.28L98.04-14.28Z M126.52-16.56L129.96-16.56L129.96 0L126.24 0L126.24-2.72Q125.36-1.56 123.68-0.58Q122.00 0.40 119.88 0.40L119.88 0.40Q117.52 0.40 115.62-0.62Q113.72-1.64 112.62-3.60Q111.52-5.56 111.52-8.28L111.52-8.28Q111.52-11 112.66-13.02Q113.80-15.04 115.74-16.14Q117.68-17.24 120.04-17.24L120.04-17.24Q122.16-17.24 123.72-16.32Q125.28-15.40 126.24-13.92L126.24-13.92L126.52-16.56ZM120.88-2.68Q122.92-2.68 124.38-3.82Q125.84-4.96 126.24-6.92L126.24-6.92L126.24-10.20Q125.76-11.96 124.24-13.06Q122.72-14.16 120.76-14.16L120.76-14.16Q119.28-14.16 118.02-13.44Q116.76-12.72 116.02-11.42Q115.28-10.12 115.28-8.48L115.28-8.48Q115.28-6.88 116.04-5.56Q116.80-4.24 118.08-3.46Q119.36-2.68 120.88-2.68L120.88-2.68Z M139.64-23.84L143.40-23.84L143.40-16.52L147.92-16.52L147.92-13.56L143.40-13.56L143.40 0L139.64 0L139.64-13.56L136.60-13.56L136.60-16.52L139.64-16.52L139.64-23.84Z M167.40-16.56L158.00-3.08L167.24-3.08L167.24 0L151.92 0L161.32-13.52L155.60-13.52Q154.28-13.52 153.44-14.30Q152.60-15.08 152.60-16.56L152.60-16.56L152.60-18.16L155.44-18.16L155.44-17.64Q155.44-17 155.74-16.78Q156.04-16.56 156.80-16.56L156.80-16.56L167.40-16.56Z"/></g>
</svg>
</g><g opacity="1" transform="rotate(0 131.7959 374.7608)">
<svg width="375.5995" height="70" x="131.7959" y="374.7608" version="1.1" preserveAspectRatio="none" viewBox="1.96 -26.4 143.79999999999998 26.799999999999997">
  <g transform="matrix(1 0 0 1 0 0)" class="companyName"><path id="id-D6z1nYkh5" d="M11.28 0L1.96 0L1.96-0.64L5.28-2.28L6.12-24.12L2.64-25.76L2.64-26.40L11.52-26.40L20.04-6.64L28.52-26.40L37.04-26.40L37.04-25.76L33.64-24.40L34.32-2.28L37.24-0.64L37.24 0L26.32 0L26.32-0.64L29.44-2.24L29.04-21.52L19.76 0.20L17.68 0.20L8.40-21.32L7.88-2.24L11.28-0.64L11.28 0Z M47.64 0L40.20 0L40.20-0.64L42.20-1.72L51.12-22.60L53.84-22.60L62.60-1.88L65.04-0.64L65.04 0L54.84 0L54.84-0.64L57.64-1.84L55.28-7.52L47.12-7.52L44.76-1.80L47.64-0.64L47.64 0ZM51.20-17.36L47.96-9.56L54.44-9.56L51.20-17.36Z M84.84 0L73.84 0L73.84-0.64L76.92-1.96L76.92-10.60L69.68-20.40L67.04-21.76L67.04-22.40L77.44-22.40L77.44-21.76L75-20.56L75-20.40L80.80-12.64L86.04-20.36L86.04-20.48L83.44-21.76L83.44-22.40L91.36-22.40L91.36-21.76L88.84-20.56L81.76-10.52L81.76-1.96L84.84-0.64L84.84 0Z M106.48 0.40L106.48 0.40Q103.08 0.40 100.42-1.10Q97.76-2.60 96.24-5.22Q94.72-7.84 94.72-11.20L94.72-11.20Q94.72-14.56 96.24-17.20Q97.76-19.84 100.42-21.34Q103.08-22.84 106.48-22.84L106.48-22.84Q109.92-22.84 112.58-21.34Q115.24-19.84 116.78-17.20Q118.32-14.56 118.32-11.20L118.32-11.20Q118.32-7.84 116.78-5.22Q115.24-2.60 112.58-1.10Q109.92 0.40 106.48 0.40ZM107.08-1.64L107.08-1.64Q110-1.64 111.68-4.02Q113.36-6.40 113.36-10.20L113.36-10.20Q113.36-13.36 112.42-15.74Q111.48-18.12 109.82-19.48Q108.16-20.84 106.04-20.84L106.04-20.84Q103.12-20.84 101.40-18.46Q99.68-16.08 99.68-12.32L99.68-12.32Q99.68-9.20 100.62-6.78Q101.56-4.36 103.22-3Q104.88-1.64 107.08-1.64Z M133.08 0L122.72 0L122.72-0.64L125.68-1.96L125.68-20.44L122.72-21.76L122.72-22.40L133.60-22.40Q137.28-22.40 139.40-20.92Q141.52-19.44 141.52-16.88L141.52-16.88Q141.52-13.12 136.96-11.48L136.96-11.48L143.16-1.88L145.76-0.64L145.76 0L138.56 0L132.48-10.20L130.48-10.20L130.48-2L133.08-0.64L133.08 0ZM132-20.48L132-20.48L130.48-20.48L130.48-12.12L132.16-12.12Q134.32-12.12 135.44-13.26Q136.56-14.40 136.56-16.36L136.56-16.36Q136.56-20.48 132-20.48Z"/></g>
</svg>
</g></svg></svg>